<?xml version="1.0" encoding="UTF-8" standalone="no"?><svg xmlns:svg="http://www.w3.org/2000/svg" xmlns="http://www.w3.org/2000/svg" xmlns:xlink="http://www.w3.org/1999/xlink" version="1.0" width="64px" height="64px" viewBox="0 0 128 128" xml:space="preserve"><g><path d="M40.73 13.1l-4.04-7A63.67 63.67 0 0 1 61.5.06v8a55.83 55.83 0 0 0-20.77 5.05z" fill="#e98135"/><path d="M40.73 13.1l-4.04-7A63.67 63.67 0 0 1 61.5.06v8a55.83 55.83 0 0 0-20.77 5.05z" fill="#fefcf9" transform="rotate(30 64 64)"/><path d="M40.73 13.1l-4.04-7A63.67 63.67 0 0 1 61.5.06v8a55.83 55.83 0 0 0-20.77 5.05z" fill="#fdf4ed" transform="rotate(60 64 64)"/><path d="M40.73 13.1l-4.04-7A63.67 63.67 0 0 1 61.5.06v8a55.83 55.83 0 0 0-20.77 5.05z" fill="#fbeadd" transform="rotate(90 64 64)"/><path d="M40.73 13.1l-4.04-7A63.67 63.67 0 0 1 61.5.06v8a55.83 55.83 0 0 0-20.77 5.05z" fill="#f9dfcc" transform="rotate(120 64 64)"/><path d="M40.73 13.1l-4.04-7A63.67 63.67 0 0 1 61.5.06v8a55.83 55.83 0 0 0-20.77 5.05z" fill="#f7d3b8" transform="rotate(150 64 64)"/><path d="M40.73 13.1l-4.04-7A63.67 63.67 0 0 1 61.5.06v8a55.83 55.83 0 0 0-20.77 5.05z" fill="#f5c7a5" transform="rotate(180 64 64)"/><path d="M40.73 13.1l-4.04-7A63.67 63.67 0 0 1 61.5.06v8a55.83 55.83 0 0 0-20.77 5.05z" fill="#f3ba90" transform="rotate(210 64 64)"/><path d="M40.73 13.1l-4.04-7A63.67 63.67 0 0 1 61.5.06v8a55.83 55.83 0 0 0-20.77 5.05z" fill="#f1ad7c" transform="rotate(240 64 64)"/><path d="M40.73 13.1l-4.04-7A63.67 63.67 0 0 1 61.5.06v8a55.83 55.83 0 0 0-20.77 5.05z" fill="#efa168" transform="rotate(270 64 64)"/><path d="M40.73 13.1l-4.04-7A63.67 63.67 0 0 1 61.5.06v8a55.83 55.83 0 0 0-20.77 5.05z" fill="#ed9656" transform="rotate(300 64 64)"/><path d="M40.73 13.1l-4.04-7A63.67 63.67 0 0 1 61.5.06v8a55.83 55.83 0 0 0-20.77 5.05z" fill="#eb8b46" transform="rotate(330 64 64)"/><animateTransform attributeName="transform" type="rotate" values="0 64 64;30 64 64;60 64 64;90 64 64;120 64 64;150 64 64;180 64 64;210 64 64;240 64 64;270 64 64;300 64 64;330 64 64" calcMode="discrete" dur="1080ms" repeatCount="indefinite"></animateTransform></g></svg>