<?xml version="1.0" encoding="UTF-8" ?>
<!DOCTYPE svg PUBLIC "-//W3C//DTD SVG 1.1//EN" "http://www.w3.org/Graphics/SVG/1.1/DTD/svg11.dtd">
<svg width="512pt" height="512pt" viewBox="0 0 512 512" version="1.1" xmlns="http://www.w3.org/2000/svg">
<g id="#010101ff">
<path fill="#010101" opacity="1.00" d=" M 281.98 20.14 C 290.64 18.64 299.26 16.81 307.93 15.36 C 310.71 14.49 313.52 17.25 312.88 20.04 C 311.35 28.74 309.66 37.41 308.15 46.12 C 307.77 49.46 304.69 51.34 302.61 53.63 C 228.09 128.08 153.55 202.53 79.08 277.03 C 74.93 280.91 71.21 285.25 66.86 288.91 C 60.32 294.22 50.73 294.19 43.51 290.25 C 39.89 293.70 36.65 297.58 32.76 300.74 C 29.59 303.18 24.97 298.59 27.33 295.38 C 30.48 291.45 34.40 288.23 37.86 284.59 C 35.38 279.84 33.80 274.31 35.38 269.00 C 37.02 261.77 43.23 257.18 48.09 252.11 C 53.75 246.22 59.72 240.65 65.36 234.75 C 60.74 230.12 57.27 223.80 57.83 217.09 C 58.30 211.41 61.21 206.17 65.31 202.29 C 85.68 182.01 106.01 161.69 126.37 141.41 C 130.07 137.71 133.70 133.70 135.48 128.69 C 136.89 125.22 136.85 121.39 137.86 117.82 C 139.36 114.48 144.93 115.35 145.29 119.02 C 145.21 129.68 139.90 139.90 132.11 147.03 C 111.22 167.83 90.36 188.66 69.50 209.49 C 66.42 212.41 65.14 216.87 66.01 221.02 C 66.43 224.34 68.90 226.79 71.06 229.13 C 138.91 161.29 206.76 93.45 274.59 25.59 C 276.81 23.51 278.74 20.61 281.98 20.14 M 287.91 27.18 C 281.66 27.53 278.59 33.74 274.23 37.33 C 279.81 42.86 285.33 48.45 290.90 53.99 C 293.90 50.62 297.78 47.95 300.17 44.09 C 301.82 37.55 302.61 30.81 303.95 24.20 C 298.60 25.19 293.27 26.25 287.91 27.18 M 268.54 42.99 C 204.69 106.98 140.65 170.79 76.84 234.81 C 82.39 240.29 87.88 245.82 93.39 251.34 C 157.37 187.49 221.24 123.55 285.21 59.70 C 279.71 54.07 274.11 48.55 268.54 42.99 M 62.19 249.38 C 67.75 254.87 73.25 260.44 78.80 265.95 C 81.78 262.98 84.76 260.00 87.73 257.01 C 82.22 251.47 76.69 245.95 71.14 240.44 C 68.15 243.41 65.17 246.40 62.19 249.38 M 45.81 265.82 C 43.68 267.97 42.54 270.96 42.69 273.98 C 42.60 282.14 52.80 288.85 59.98 284.15 C 64.88 280.60 68.64 275.75 73.10 271.69 C 67.67 266.05 62.00 260.64 56.55 255.02 C 53.00 258.65 49.29 262.12 45.81 265.82 Z" />
<path fill="#010101" opacity="1.00" d=" M 393.41 31.53 C 402.52 29.16 412.74 30.88 420.23 36.69 C 434.00 46.95 435.42 69.32 423.43 81.49 C 407.50 97.55 391.44 113.48 375.48 129.50 C 371.64 133.46 366.53 136.25 361.01 136.86 C 351.28 137.76 341.33 131.43 338.40 122.02 C 335.33 114.10 338.27 104.90 344.16 99.10 C 358.44 84.78 372.77 70.50 387.06 56.18 C 390.78 52.20 396.93 51.18 401.93 53.08 C 407.13 54.93 410.25 60.69 409.82 66.05 C 409.50 69.56 407.61 72.75 405.09 75.14 C 393.52 86.58 382.12 98.20 370.52 109.61 C 368.59 111.85 364.56 110.77 363.87 107.94 C 363.12 105.94 364.62 104.19 365.93 102.89 C 377.42 91.42 388.95 79.97 400.37 68.43 C 403.42 65.80 401.54 60.73 397.92 59.76 C 395.64 58.96 393.76 60.86 392.27 62.28 C 377.98 76.64 363.63 90.94 349.31 105.27 C 346.69 107.79 345.05 111.32 345.20 114.99 C 344.70 122.83 352.34 129.79 360.07 128.92 C 363.92 128.84 367.27 126.60 369.81 123.87 C 384.45 109.17 399.13 94.52 413.81 79.86 C 418.37 75.55 422.82 70.52 423.84 64.09 C 426.40 50.52 413.61 36.91 399.99 37.98 C 394.12 38.42 388.79 41.55 384.76 45.72 C 370.62 59.88 356.46 74.03 342.35 88.23 C 341.12 89.30 339.86 90.79 338.05 90.57 C 335.33 90.52 333.38 87.24 334.69 84.85 C 336.34 82.48 338.58 80.63 340.58 78.57 C 353.59 65.56 366.58 52.52 379.59 39.50 C 383.39 35.68 388.17 32.83 393.41 31.53 Z" />
<path fill="#010101" opacity="1.00" d=" M 496.50 58.67 C 498.69 55.92 503.50 57.63 503.48 61.15 C 503.42 204.76 503.52 348.37 503.43 491.98 C 503.99 495.17 500.98 497.35 498.04 496.81 C 356.35 496.84 214.67 496.80 72.98 496.83 C 70.22 496.59 66.74 497.60 64.67 495.22 C 63.12 493.09 64.30 490.45 66.11 488.95 C 209.61 345.56 352.96 202.01 496.50 58.67 M 77.72 488.79 C 91.52 488.80 105.32 488.75 119.13 488.81 C 119.21 484.58 118.84 480.33 119.32 476.12 C 120.01 472.41 126.08 472.29 126.88 475.97 C 127.43 480.22 127.03 484.52 127.12 488.79 C 134.92 488.70 142.73 488.92 150.54 488.71 C 150.65 484.43 150.14 480.10 150.79 475.86 C 151.75 472.41 157.27 472.40 158.25 475.85 C 158.91 480.12 158.40 484.49 158.51 488.80 C 166.30 488.79 174.09 488.74 181.89 488.80 C 181.99 484.53 181.50 480.22 182.11 475.98 C 182.95 472.28 188.95 472.37 189.68 476.10 C 190.16 480.29 189.78 484.53 189.87 488.74 C 197.66 488.82 205.44 488.81 213.22 488.74 C 213.37 484.39 212.83 479.98 213.55 475.68 C 214.75 472.27 220.24 472.55 221.08 476.08 C 221.55 480.30 221.13 484.56 221.22 488.80 C 229.03 488.74 236.84 488.80 244.65 488.79 C 244.73 484.56 244.36 480.31 244.82 476.10 C 245.53 472.44 251.23 472.30 252.35 475.75 C 253.03 480.02 252.51 484.38 252.62 488.69 C 260.41 488.94 268.21 488.69 276.00 488.79 C 276.09 484.52 275.71 480.22 276.23 475.97 C 277.14 472.39 282.77 472.40 283.78 475.92 C 284.28 480.19 283.90 484.51 284.00 488.81 C 291.78 488.71 299.57 488.83 307.35 488.80 C 307.50 484.43 306.96 480.00 307.67 475.67 C 308.85 472.31 314.33 472.52 315.14 476.03 C 315.66 480.25 315.31 484.54 315.36 488.79 C 323.17 488.84 330.97 488.71 338.78 488.80 C 338.83 484.52 338.41 480.21 338.99 475.96 C 339.87 472.56 345.18 472.31 346.44 475.57 C 347.17 479.92 346.62 484.38 346.77 488.79 C 354.55 488.72 362.34 488.86 370.12 488.77 C 370.28 484.38 369.69 479.91 370.47 475.58 C 371.72 472.29 377.13 472.58 377.90 476.04 C 378.49 480.26 378.05 484.55 378.11 488.80 C 385.91 488.80 393.71 488.73 401.51 488.81 C 401.67 484.50 401.11 480.14 401.75 475.87 C 402.75 472.43 408.22 472.33 409.24 475.80 C 409.88 480.08 409.37 484.45 409.55 488.76 C 417.31 488.79 425.07 488.81 432.84 488.76 C 432.95 484.50 432.58 480.21 433.12 475.97 C 433.98 472.31 439.93 472.40 440.68 476.09 C 441.16 480.31 440.78 484.57 440.87 488.80 C 448.66 488.75 456.45 488.78 464.23 488.80 C 464.38 484.40 463.83 479.94 464.55 475.59 C 465.80 472.27 471.21 472.55 472.02 476.03 C 472.51 480.25 472.15 484.52 472.27 488.77 C 479.96 488.84 487.65 488.75 495.34 488.77 C 495.49 480.38 495.44 471.99 495.40 463.60 C 491.09 463.47 486.74 463.94 482.47 463.32 C 478.90 462.25 479.23 456.34 482.92 455.73 C 487.08 455.32 491.27 455.68 495.44 455.59 C 495.39 447.79 495.47 439.99 495.40 432.19 C 491.25 432.17 487.08 432.57 482.96 432.06 C 479.22 431.52 478.88 425.60 482.46 424.52 C 486.74 423.88 491.09 424.35 495.40 424.22 C 495.47 416.43 495.41 408.63 495.41 400.84 C 491.07 400.72 486.69 401.21 482.39 400.55 C 478.80 399.46 479.29 393.45 483.03 393.01 C 487.14 392.51 491.30 392.91 495.43 392.87 C 495.40 385.07 495.45 377.28 495.43 369.49 C 490.97 369.34 486.40 370.00 482.01 369.03 C 478.96 367.57 479.36 362.45 482.73 361.70 C 486.93 361.15 491.20 361.61 495.43 361.49 C 495.46 353.70 495.39 345.90 495.43 338.11 C 491.29 338.04 487.13 338.38 483.01 337.97 C 479.28 337.51 478.85 331.62 482.36 330.43 C 486.67 329.73 491.08 330.25 495.43 330.13 C 495.39 322.33 495.46 314.53 495.43 306.74 C 491.28 306.65 487.12 306.96 482.99 306.55 C 479.49 306.08 478.82 300.62 481.99 299.20 C 486.27 298.07 490.78 299.11 495.16 298.64 C 495.86 290.94 495.17 283.12 495.45 275.38 C 491.27 275.27 487.07 275.62 482.90 275.23 C 479.22 274.51 478.89 268.73 482.48 267.63 C 486.75 267.01 491.10 267.46 495.41 267.34 C 495.43 259.56 495.46 251.78 495.40 243.99 C 491.26 243.91 487.11 244.25 482.99 243.83 C 479.34 243.36 478.85 237.58 482.23 236.33 C 486.58 235.60 491.04 236.14 495.44 236.01 C 495.42 228.20 495.42 220.39 495.43 212.59 C 491.12 212.48 486.76 212.98 482.48 212.32 C 478.92 211.26 479.19 205.39 482.91 204.78 C 487.06 204.34 491.25 204.67 495.42 204.56 C 495.45 196.78 495.43 189.00 495.41 181.22 C 490.98 181.06 486.46 181.71 482.10 180.83 C 479.04 179.53 479.28 174.55 482.44 173.52 C 486.73 172.84 491.11 173.36 495.44 173.24 C 495.39 165.44 495.45 157.64 495.43 149.84 C 491.09 149.73 486.70 150.22 482.40 149.55 C 479.21 148.46 479.11 143.48 482.20 142.21 C 486.55 141.40 491.02 142.00 495.43 141.86 C 495.47 134.07 495.38 126.28 495.44 118.49 C 491.00 118.33 486.50 118.90 482.10 118.14 C 479.02 116.66 479.28 111.51 482.71 110.71 C 486.92 110.14 491.20 110.57 495.43 110.49 C 495.42 97.33 495.43 84.17 495.43 71.01 C 356.19 210.26 216.87 349.44 77.72 488.79 Z" />
<path fill="#010101" opacity="1.00" d=" M 280.32 145.44 C 292.20 141.73 306.29 149.17 309.86 161.12 C 313.21 170.42 310.21 181.33 303.00 187.98 C 221.85 269.09 140.75 350.29 59.57 431.35 C 45.93 436.20 32.17 440.80 18.52 445.64 C 16.38 446.37 14.25 447.27 11.98 447.49 C 9.00 447.02 7.80 443.59 9.14 441.08 C 14.29 426.20 19.33 411.26 24.61 396.43 C 103.17 317.74 181.91 239.17 260.47 160.47 C 266.51 154.80 271.85 147.52 280.32 145.44 M 266.72 165.74 C 274.64 173.55 282.45 181.46 290.33 189.30 C 295.14 184.15 301.61 179.75 303.41 172.54 C 305.88 162.08 295.76 151.04 285.10 152.56 C 276.92 153.15 272.17 160.60 266.72 165.74 M 250.40 181.97 C 258.25 189.88 266.16 197.72 274.01 205.63 C 277.59 202.11 281.13 198.55 284.66 194.98 C 276.79 187.09 268.92 179.20 261.02 171.35 C 257.47 174.87 253.92 178.41 250.40 181.97 M 33.67 398.71 C 36.69 401.68 39.67 404.68 42.66 407.68 C 113.00 337.32 183.36 266.98 253.71 196.63 C 250.71 193.64 247.71 190.66 244.75 187.64 C 174.36 257.96 104.01 328.33 33.67 398.71 M 48.35 413.35 C 51.33 416.39 54.32 419.41 57.43 422.32 C 127.67 351.94 198.00 281.66 268.34 211.38 C 265.41 208.30 262.40 205.30 259.38 202.33 C 189.05 272.68 118.70 343.02 48.35 413.35 M 19.04 436.94 C 29.32 433.36 39.62 429.82 49.90 426.26 C 43.15 419.52 36.39 412.80 29.69 406.02 C 26.22 416.35 22.55 426.62 19.04 436.94 Z" />
<path fill="#010101" opacity="1.00" d=" M 418.50 246.44 C 421.03 243.79 425.74 246.49 425.04 250.00 C 425.08 304.32 425.07 358.65 425.05 412.98 C 425.44 415.54 424.01 418.70 421.00 418.41 C 368.33 418.51 315.66 418.39 262.99 418.47 C 260.01 418.37 256.91 418.87 254.04 417.92 C 251.31 416.47 251.58 412.55 253.95 410.87 C 308.82 356.09 363.54 301.13 418.50 246.44 M 265.79 410.40 C 316.21 410.48 366.64 410.40 417.06 410.44 C 417.08 359.99 417.09 309.55 417.05 259.11 C 366.62 309.52 316.17 359.93 265.79 410.40 Z" />
</g>
</svg>
