<?xml version="1.0" encoding="UTF-8" ?>
<!DOCTYPE svg PUBLIC "-//W3C//DTD SVG 1.1//EN" "http://www.w3.org/Graphics/SVG/1.1/DTD/svg11.dtd">
<svg width="512pt" height="512pt" viewBox="0 0 512 512" version="1.1" xmlns="http://www.w3.org/2000/svg">
<g id="#010101ff">
<path fill="#010101" opacity="1.00" d=" M 458.43 20.42 C 468.37 13.86 482.11 13.55 492.28 19.78 C 506.00 27.49 510.52 46.71 503.43 60.40 C 500.96 65.63 496.55 69.49 492.54 73.52 C 460.72 105.34 428.91 137.18 397.07 168.98 C 395.68 170.58 393.02 171.00 391.44 169.45 C 388.05 166.28 384.89 162.86 381.57 159.62 C 375.67 165.59 369.56 171.35 363.86 177.50 C 376.50 190.07 389.04 202.76 401.65 215.37 C 407.62 221.15 410.91 229.60 410.30 237.90 C 409.45 248.05 402.42 257.30 393.03 261.13 C 358.17 275.83 323.23 290.33 288.40 305.09 C 355.96 305.17 423.52 305.06 491.07 305.16 C 495.29 304.72 496.60 311.27 492.78 312.76 C 489.59 313.54 486.26 313.05 483.02 313.15 C 432.49 313.13 381.96 313.14 331.43 313.14 C 331.46 341.11 331.46 369.08 331.43 397.05 C 384.67 397.14 437.90 396.99 491.13 397.12 C 493.94 396.96 496.02 400.29 494.74 402.77 C 494.04 404.67 491.85 405.20 490.04 405.09 C 469.53 405.05 449.02 405.02 428.52 405.10 C 428.54 433.06 428.52 461.03 428.52 489.00 C 433.56 489.22 438.69 488.54 443.67 489.33 C 447.50 490.73 446.34 497.29 442.14 496.96 C 302.41 497.07 162.67 496.95 22.94 497.01 C 21.14 497.13 19.06 496.63 18.23 494.84 C 16.76 492.30 18.96 488.77 21.89 489.03 C 28.59 488.92 35.30 489.05 42.00 489.00 C 42.00 461.03 42.00 433.06 42.00 405.10 C 30.67 404.93 19.33 405.22 8.01 404.96 C 3.56 404.19 4.33 396.87 8.86 397.12 C 50.62 396.99 92.39 397.12 134.15 397.07 C 134.10 369.08 134.26 341.09 134.06 313.11 C 96.38 313.19 58.69 313.09 21.00 313.16 C 19.11 313.06 16.74 313.39 15.47 311.63 C 13.22 309.15 15.53 304.64 18.90 305.14 C 74.87 305.08 130.84 305.15 186.81 305.10 C 211.08 247.30 235.39 189.52 259.67 131.72 C 263.45 119.83 275.24 110.57 287.97 111.53 C 294.74 112.12 301.40 114.95 306.20 119.83 C 319.01 132.63 331.77 145.49 344.60 158.27 C 350.50 152.31 356.44 146.39 362.38 140.46 C 359.20 137.10 355.76 133.99 352.65 130.57 C 351.12 129.01 351.29 126.40 352.96 125.02 C 385.61 92.32 418.33 59.67 450.99 26.98 C 453.32 24.63 455.64 22.23 458.43 20.42 M 454.67 34.66 C 423.58 65.78 392.41 96.83 361.35 128.00 C 372.21 138.93 383.13 149.79 394.00 160.70 C 426.48 128.30 458.89 95.82 491.33 63.39 C 495.57 59.30 498.70 53.88 499.24 47.94 C 500.55 33.37 485.48 19.69 471.08 23.31 C 464.29 24.74 459.30 29.86 454.67 34.66 M 272.31 125.45 C 269.69 128.12 268.38 131.67 266.97 135.05 C 239.37 200.73 211.75 266.42 184.17 332.11 C 182.44 334.64 184.20 337.80 186.95 338.52 C 189.89 337.87 192.60 336.50 195.38 335.37 C 260.65 307.93 325.98 280.62 391.25 253.17 C 400.67 249.27 404.93 237.17 401.00 227.99 C 399.71 224.85 397.34 222.36 394.97 220.02 C 382.66 207.72 370.42 195.36 358.11 183.06 C 347.20 193.88 336.42 204.84 325.47 215.61 C 319.35 221.38 307.81 219.47 304.49 211.58 C 301.72 206.55 302.97 200.00 306.93 195.97 C 317.55 185.27 328.25 174.64 338.89 163.95 C 325.79 150.78 312.68 137.61 299.51 124.51 C 292.22 117.23 279.20 118.03 272.31 125.45 M 313.10 201.11 C 312.10 202.18 310.91 203.36 310.98 204.95 C 310.33 209.66 317.13 213.35 320.39 209.40 C 338.91 190.93 357.36 172.40 375.88 153.93 C 373.27 151.32 370.65 148.72 368.05 146.10 C 349.76 164.47 331.42 182.78 313.10 201.11 M 142.17 313.13 C 142.21 341.11 142.11 369.09 142.21 397.07 C 202.61 397.07 263.00 397.09 323.40 397.05 C 323.43 369.08 323.49 341.10 323.36 313.13 C 306.24 313.12 289.12 313.18 272.00 313.10 C 267.15 313.01 263.02 316.02 258.57 317.54 C 236.68 326.73 214.77 335.88 192.90 345.12 C 189.74 346.60 186.02 346.58 182.85 345.17 C 176.84 343.01 174.10 335.27 176.53 329.57 C 178.80 324.07 181.10 318.59 183.45 313.13 C 169.69 313.14 155.93 313.15 142.17 313.13 M 50.00 405.08 C 50.00 433.05 50.00 461.02 50.00 489.00 C 110.40 489.00 170.81 489.00 231.21 489.00 C 231.25 461.02 231.23 433.05 231.22 405.08 C 170.81 405.04 110.40 405.05 50.00 405.08 M 239.23 405.09 C 239.25 433.05 239.27 461.02 239.22 488.99 C 299.67 488.96 360.12 489.09 420.56 488.93 C 420.42 460.98 420.57 433.03 420.49 405.08 C 360.07 405.05 299.65 405.04 239.23 405.09 Z" />
<path fill="#010101" opacity="1.00" d=" M 463.28 64.25 C 465.80 62.70 469.47 65.05 469.09 67.97 C 469.11 69.89 467.49 71.10 466.32 72.37 C 459.06 79.47 452.02 86.79 444.72 93.84 C 442.44 96.08 438.14 94.22 438.11 91.05 C 437.89 88.88 439.84 87.51 441.13 86.09 C 448.60 78.90 455.63 71.23 463.28 64.25 Z" />
<path fill="#010101" opacity="1.00" d=" M 425.33 102.14 C 428.28 99.93 432.67 103.58 431.19 106.90 C 429.82 109.21 427.78 111.10 425.68 112.74 C 422.77 114.78 418.53 111.31 419.86 108.02 C 421.18 105.68 423.28 103.85 425.33 102.14 Z" />
<path fill="#010101" opacity="1.00" d=" M 359.36 332.47 C 362.69 331.12 366.52 332.01 370.05 331.77 C 379.70 331.94 389.36 331.53 399.01 331.93 C 403.12 332.47 403.08 339.29 398.93 339.69 C 386.60 339.95 374.25 339.75 361.92 339.79 C 357.95 340.40 355.94 334.48 359.36 332.47 Z" />
<path fill="#010101" opacity="1.00" d=" M 419.40 332.32 C 421.77 331.38 424.46 331.91 426.97 331.73 C 429.44 331.86 432.75 331.14 434.26 333.70 C 435.93 336.13 433.94 339.91 430.95 339.75 C 427.36 339.83 423.75 339.98 420.18 339.64 C 416.95 338.80 416.38 333.83 419.40 332.32 Z" />
<path fill="#010101" opacity="1.00" d=" M 64.43 428.46 C 66.58 426.21 70.97 427.83 71.03 430.96 C 71.32 442.98 71.00 455.01 71.18 467.04 C 71.07 469.17 71.53 471.97 69.40 473.31 C 66.95 475.20 62.96 473.18 63.16 470.06 C 63.03 458.03 63.19 446.00 63.09 433.96 C 63.19 432.09 62.80 429.81 64.43 428.46 Z" />
<path fill="#010101" opacity="1.00" d=" M 462.34 489.65 C 468.36 488.21 474.84 489.33 481.04 489.02 C 485.49 488.36 487.17 495.35 482.89 496.74 C 476.60 497.27 470.23 496.99 463.92 496.90 C 460.39 496.69 459.31 491.37 462.34 489.65 Z" />
</g>
</svg>
