<?xml version="1.0" encoding="UTF-8" ?>
<!DOCTYPE svg PUBLIC "-//W3C//DTD SVG 1.1//EN" "http://www.w3.org/Graphics/SVG/1.1/DTD/svg11.dtd">
<svg width="512pt" height="512pt" viewBox="0 0 512 512" version="1.1" xmlns="http://www.w3.org/2000/svg">
<g id="#010101ff">
<path fill="#010101" opacity="1.00" d=" M 33.83 47.62 C 39.03 45.74 44.64 46.25 50.06 46.19 C 189.72 46.20 329.38 46.20 469.03 46.19 C 484.30 45.81 498.31 59.74 497.96 75.02 C 497.94 173.69 497.98 272.36 497.94 371.02 C 497.90 382.27 490.11 392.60 479.95 396.96 C 475.26 399.05 470.04 399.24 464.99 399.07 C 416.86 399.00 368.73 399.15 320.61 399.00 C 324.73 418.61 328.98 438.20 333.16 457.80 C 348.11 457.79 363.06 457.74 378.01 457.82 C 381.17 457.29 383.76 461.13 381.98 463.84 C 381.05 465.63 378.90 465.87 377.10 465.82 C 296.07 465.78 215.04 465.83 134.02 465.80 C 130.98 466.27 128.35 462.77 129.88 460.02 C 130.92 457.60 133.82 457.77 136.01 457.77 C 150.29 457.79 164.56 457.78 178.84 457.79 C 183.05 438.23 187.19 418.65 191.42 399.09 C 141.97 399.02 92.51 399.08 43.06 399.06 C 27.98 399.55 14.09 386.06 14.01 371.01 C 13.98 272.33 14.01 173.66 14.00 74.98 C 13.74 62.81 22.54 51.56 33.83 47.62 M 27.94 59.91 C 23.63 64.03 21.85 70.13 22.00 75.97 C 22.00 156.24 22.00 236.51 22.00 316.78 C 177.98 316.91 333.96 316.76 489.93 316.86 C 489.99 236.59 489.97 156.32 489.95 76.06 C 490.24 68.78 487.15 61.09 480.66 57.31 C 474.83 53.46 467.60 54.32 460.98 54.21 C 321.98 54.23 182.99 54.19 44.00 54.23 C 38.19 54.03 32.12 55.70 27.94 59.91 M 22.00 324.85 C 22.04 340.25 21.92 355.65 22.06 371.05 C 22.11 378.16 25.91 385.33 32.37 388.58 C 37.44 391.46 43.44 391.08 49.06 391.08 C 188.72 391.06 328.39 391.08 468.05 391.07 C 473.65 391.19 479.51 389.68 483.64 385.72 C 488.01 381.78 489.98 375.81 489.94 370.02 C 489.97 354.97 489.98 339.91 489.94 324.85 C 333.96 324.85 177.98 324.85 22.00 324.85 M 199.57 399.07 C 195.42 418.66 191.23 438.23 187.01 457.80 C 232.99 457.75 278.96 457.82 324.94 457.77 C 320.81 438.20 316.56 418.65 312.41 399.09 C 274.79 399.03 237.18 399.06 199.57 399.07 Z" />
<path fill="#010101" opacity="1.00" d=" M 246.44 68.58 C 251.27 68.14 256.13 68.57 260.97 68.41 C 263.32 68.55 266.35 67.85 267.96 70.08 C 269.84 72.39 268.01 76.44 264.98 76.40 C 258.69 76.42 252.35 76.68 246.08 76.22 C 242.19 75.39 242.58 69.06 246.44 68.58 Z" />
<path fill="#010101" opacity="1.00" d=" M 59.21 106.18 C 68.75 105.24 78.46 106.07 88.07 105.77 C 90.51 105.95 93.79 105.09 95.43 107.46 C 97.40 109.95 95.27 114.05 92.08 113.76 C 82.74 113.91 73.38 113.71 64.03 113.84 C 61.92 113.71 59.20 114.24 57.78 112.25 C 56.20 110.35 56.97 107.18 59.21 106.18 Z" />
<path fill="#010101" opacity="1.00" d=" M 172.75 110.97 C 172.68 109.13 173.11 106.85 175.07 106.16 C 176.99 105.58 179.03 105.82 181.01 105.77 C 243.35 105.84 305.69 105.71 368.03 105.82 C 370.73 105.44 373.31 108.29 372.33 110.94 C 371.85 112.82 369.90 113.94 368.03 113.79 C 350.29 113.83 332.55 113.79 314.81 113.80 C 314.68 118.51 315.05 123.23 314.66 127.93 C 314.07 131.91 307.56 132.01 306.95 127.97 C 306.55 123.26 306.93 118.53 306.75 113.81 C 264.76 113.80 222.77 113.79 180.78 113.81 C 180.76 140.02 180.77 166.23 180.77 192.43 C 186.67 192.55 192.59 192.12 198.47 192.65 C 202.37 193.58 202.01 199.93 198.01 200.33 C 192.27 200.65 186.52 200.31 180.77 200.47 C 180.78 226.68 180.75 252.89 180.79 279.10 C 195.54 279.14 210.28 279.11 225.03 279.11 C 226.86 279.03 229.03 279.33 229.93 281.18 C 231.53 283.80 229.16 287.49 226.10 287.09 C 210.39 287.22 194.68 287.09 178.97 287.15 C 176.89 287.15 174.13 287.23 173.17 284.95 C 172.47 282.70 172.82 280.28 172.75 277.96 C 172.75 222.30 172.75 166.63 172.75 110.97 Z" />
<path fill="#010101" opacity="1.00" d=" M 412.05 107.11 C 413.07 106.02 414.56 105.67 416.01 105.77 C 428.01 105.83 440.02 105.72 452.02 105.82 C 454.35 105.61 456.41 107.66 456.26 109.99 C 456.21 167.69 456.30 225.40 456.22 283.10 C 456.34 285.36 454.32 287.28 452.08 287.13 C 392.72 287.15 333.35 287.15 273.99 287.13 C 272.39 287.11 270.53 286.93 269.65 285.38 C 267.76 282.93 269.84 278.92 272.95 279.17 C 284.23 279.02 295.52 279.18 306.80 279.11 C 306.78 252.88 306.76 226.65 306.78 200.43 C 277.19 200.48 247.59 200.42 218.00 200.46 C 215.48 200.80 212.96 198.67 213.28 196.08 C 213.41 193.73 215.75 192.18 217.99 192.44 C 247.58 192.38 277.18 192.49 306.78 192.39 C 306.89 177.24 306.59 162.08 306.91 146.95 C 307.07 142.42 314.68 142.51 314.72 147.04 C 314.88 169.99 314.81 192.95 314.80 215.91 C 344.58 216.04 374.37 215.81 404.14 216.01 C 407.48 215.52 409.66 220.00 407.45 222.44 C 406.20 224.16 403.88 223.87 402.03 223.95 C 389.19 223.90 376.36 223.93 363.52 223.93 C 363.32 230.11 363.93 236.34 363.27 242.49 C 362.24 246.18 356.11 245.83 355.66 242.00 C 355.28 235.99 355.66 229.95 355.46 223.93 C 341.91 223.93 328.37 223.92 314.82 223.93 C 314.78 242.33 314.81 260.72 314.81 279.12 C 328.37 279.12 341.94 279.12 355.51 279.12 C 355.66 273.09 355.23 267.04 355.65 261.02 C 356.20 257.14 362.38 256.87 363.30 260.66 C 363.84 266.78 363.35 272.97 363.55 279.12 C 391.78 279.12 420.00 279.13 448.23 279.11 C 448.23 260.72 448.23 242.32 448.23 223.93 C 440.49 223.82 432.74 224.13 425.01 223.80 C 421.18 223.45 420.53 217.62 424.05 216.23 C 432.08 215.48 440.17 216.19 448.23 215.94 C 448.22 181.90 448.24 147.87 448.22 113.83 C 437.62 113.88 427.00 113.57 416.41 114.01 C 406.76 123.84 397.00 133.58 387.22 143.27 C 385.26 145.64 381.10 144.54 380.42 141.60 C 379.75 139.53 381.26 137.79 382.65 136.47 C 392.49 126.73 402.20 116.85 412.05 107.11 Z" />
<path fill="#010101" opacity="1.00" d=" M 59.42 128.57 C 60.93 128.17 62.50 128.29 64.04 128.25 C 79.05 128.33 94.07 128.21 109.08 128.30 C 112.31 127.99 114.55 132.13 112.47 134.66 C 111.28 136.46 108.91 136.25 107.04 136.33 C 91.70 136.23 76.35 136.36 61.02 136.27 C 56.72 136.62 55.42 129.96 59.42 128.57 Z" />
<path fill="#010101" opacity="1.00" d=" M 129.37 128.48 C 132.07 128.10 134.91 127.99 137.57 128.64 C 140.88 129.94 140.50 135.41 136.95 136.11 C 134.34 136.44 131.63 136.51 129.04 135.96 C 125.65 134.75 125.92 129.39 129.37 128.48 Z" />
<path fill="#010101" opacity="1.00" d=" M 58.52 151.57 C 61.39 150.06 64.86 150.99 67.98 150.73 C 72.60 150.86 77.25 150.49 81.86 150.97 C 85.49 151.94 85.44 157.74 81.77 158.59 C 74.87 158.99 67.91 158.72 60.99 158.73 C 57.27 159.06 55.45 153.63 58.52 151.57 Z" />
<path fill="#010101" opacity="1.00" d=" M 96.39 151.46 C 96.79 151.32 97.58 151.03 97.98 150.89 C 108.34 150.57 118.73 150.81 129.10 150.79 C 132.18 150.73 133.99 154.81 132.07 157.15 C 130.71 159.15 128.04 158.70 125.96 158.80 C 116.68 158.66 107.38 158.95 98.10 158.67 C 94.59 158.48 93.41 153.26 96.39 151.46 Z" />
<path fill="#010101" opacity="1.00" d=" M 58.50 217.59 C 60.37 216.29 62.82 216.84 64.96 216.71 C 74.61 217.01 84.29 216.36 93.92 216.99 C 97.85 218.11 97.16 224.65 93.01 224.69 C 83.02 224.91 73.02 224.69 63.03 224.79 C 61.22 224.72 58.93 224.96 57.82 223.20 C 56.33 221.59 56.81 218.85 58.50 217.59 Z" />
<path fill="#010101" opacity="1.00" d=" M 108.37 217.48 C 111.69 216.05 115.55 217.04 119.08 216.75 C 122.95 216.91 126.96 216.23 130.74 217.22 C 134.30 218.84 132.97 224.90 128.99 224.71 C 122.70 224.79 116.39 224.91 110.10 224.66 C 106.60 224.48 105.42 219.28 108.37 217.48 Z" />
<path fill="#010101" opacity="1.00" d=" M 58.42 240.50 C 59.66 239.36 61.45 239.68 62.98 239.59 C 78.32 239.72 93.67 239.52 109.01 239.68 C 112.10 239.30 114.43 243.14 112.71 245.72 C 111.63 247.77 109.04 247.68 107.06 247.67 C 91.66 247.57 76.26 247.75 60.87 247.59 C 57.25 247.82 55.52 242.57 58.42 240.50 Z" />
<path fill="#010101" opacity="1.00" d=" M 251.32 345.40 C 260.76 341.45 271.97 351.07 270.47 360.93 C 269.50 366.94 264.52 372.09 258.61 373.45 C 249.76 375.34 240.75 366.89 241.41 358.03 C 241.99 352.41 246.18 347.53 251.32 345.40 M 252.34 353.34 C 247.71 355.92 248.54 364.72 254.15 365.51 C 258.32 366.79 263.22 363.64 262.58 359.01 C 263.17 353.57 256.55 350.92 252.34 353.34 Z" />
</g>
</svg>
