<?xml version="1.0" encoding="UTF-8" ?>
<!DOCTYPE svg PUBLIC "-//W3C//DTD SVG 1.1//EN" "http://www.w3.org/Graphics/SVG/1.1/DTD/svg11.dtd">
<svg width="512pt" height="512pt" viewBox="0 0 512 512" version="1.1" xmlns="http://www.w3.org/2000/svg">
<g id="#010101ff">
<path fill="#010101" opacity="1.00" d=" M 47.13 44.87 C 47.16 42.42 49.77 41.04 51.98 41.31 C 103.67 41.30 155.36 41.30 207.05 41.31 C 209.28 41.04 211.83 42.44 211.90 44.89 C 212.16 49.43 211.81 53.99 212.02 58.54 C 215.32 58.66 218.73 58.07 221.95 58.89 C 224.97 60.42 224.08 64.25 224.18 67.00 C 224.21 133.55 224.08 200.10 224.24 266.66 C 313.61 237.41 403.10 208.50 492.51 179.36 C 494.13 178.85 496.14 178.17 497.63 179.41 C 500.40 181.39 499.14 185.18 499.33 188.05 C 499.30 280.71 499.36 373.37 499.31 466.03 C 499.78 469.05 496.85 471.18 494.06 470.71 C 336.02 470.63 177.99 470.81 19.96 470.64 C 15.42 470.98 14.51 463.51 19.05 462.82 C 24.35 462.46 29.68 462.80 35.00 462.68 C 35.00 450.39 35.00 438.10 35.00 425.81 C 21.21 423.16 9.77 408.73 13.35 394.55 C 16.70 381.01 22.00 368.07 27.09 355.13 C 28.36 351.57 31.64 349.35 34.77 347.56 C 34.92 252.69 34.78 157.82 34.83 62.95 C 34.64 60.86 36.19 58.70 38.36 58.59 C 41.25 58.33 44.15 58.52 47.04 58.52 C 47.12 53.97 46.88 49.42 47.13 44.87 M 55.06 49.32 C 55.04 52.39 55.04 55.45 55.05 58.52 C 104.70 58.47 154.34 58.55 203.98 58.48 C 203.99 55.43 203.97 52.37 203.93 49.32 C 154.31 49.32 104.68 49.33 55.06 49.32 M 42.89 66.49 C 42.79 130.33 42.87 194.17 42.85 258.01 C 42.94 287.88 42.67 317.75 42.99 347.61 C 46.31 349.19 49.57 351.54 50.92 355.11 C 55.38 366.19 59.84 377.30 63.14 388.80 C 64.62 393.70 65.99 398.88 64.94 404.02 C 62.87 414.80 53.73 423.65 43.00 425.76 C 43.00 438.06 43.00 450.37 43.00 462.69 C 60.66 462.66 78.32 462.69 95.98 462.68 C 96.02 450.38 95.99 438.09 95.99 425.80 C 85.31 423.62 76.16 414.86 74.07 404.09 C 72.87 398.32 74.73 392.56 76.36 387.08 C 79.48 376.44 83.68 366.15 87.76 355.85 C 89.12 351.93 92.53 348.90 96.38 347.53 C 102.78 345.28 110.00 349.71 112.22 355.81 C 117.31 368.59 122.51 381.41 125.72 394.82 C 129.03 408.83 117.79 423.22 104.08 425.68 C 103.90 438.02 104.04 450.35 104.01 462.69 C 121.67 462.63 139.34 462.73 157.00 462.65 C 157.00 450.37 157.01 438.09 156.99 425.82 C 143.31 423.19 131.92 408.95 135.29 394.84 C 138.44 381.42 143.70 368.63 148.77 355.85 C 150.94 349.95 157.71 345.53 164.00 347.35 C 168.14 348.57 171.77 351.77 173.24 355.87 C 178.32 368.64 183.52 381.44 186.72 394.83 C 190.05 408.92 178.72 423.22 165.00 425.79 C 165.00 438.09 164.99 450.39 165.01 462.69 C 176.74 462.59 188.47 462.83 200.20 462.57 C 200.05 401.38 200.23 340.20 200.13 279.02 C 200.10 277.20 200.16 274.88 202.06 273.96 C 206.61 271.99 211.48 270.86 216.15 269.20 C 216.12 201.64 216.21 134.08 216.11 66.53 C 158.37 66.51 100.63 66.57 42.89 66.49 M 467.42 196.03 C 467.50 241.36 467.40 286.69 467.47 332.02 C 467.28 334.86 468.03 338.01 466.72 340.64 C 464.62 343.97 458.90 341.93 459.44 338.01 C 459.40 291.52 459.46 245.04 459.41 198.55 C 450.58 201.43 441.75 204.32 432.91 207.17 C 432.84 285.22 432.90 363.26 432.88 441.31 C 441.72 441.27 450.56 441.34 459.40 441.29 C 459.52 425.89 459.31 410.49 459.49 395.10 C 459.42 392.29 462.83 390.39 465.24 391.73 C 466.89 392.39 467.50 394.28 467.43 395.93 C 467.46 411.06 467.45 426.19 467.44 441.32 C 475.39 441.28 483.35 441.31 491.31 441.30 C 491.27 356.96 491.36 272.61 491.26 188.26 C 483.30 190.79 475.33 193.32 467.42 196.03 M 398.26 218.34 C 398.44 292.66 398.22 366.98 398.37 441.30 C 407.20 441.33 416.04 441.28 424.88 441.31 C 424.84 364.14 424.85 286.96 424.88 209.79 C 415.99 212.59 407.20 215.69 398.26 218.34 M 363.75 229.70 C 363.80 300.24 363.76 370.77 363.77 441.31 C 372.61 441.31 381.46 441.29 390.31 441.31 C 390.32 367.87 390.28 294.44 390.32 221.00 C 381.47 223.92 372.59 226.76 363.75 229.70 M 329.20 240.92 C 329.29 250.95 329.13 260.98 329.26 271.01 C 329.32 272.92 329.09 275.25 327.14 276.19 C 324.83 277.66 321.36 275.93 321.29 273.17 C 321.06 263.28 321.26 253.38 321.20 243.49 C 283.53 255.74 245.85 267.98 208.18 280.24 C 208.15 333.92 208.20 387.61 208.15 441.30 C 216.28 441.30 224.41 441.30 232.54 441.32 C 232.58 425.55 232.51 409.78 232.57 394.01 C 232.17 391.45 234.36 389.05 236.95 389.33 C 255.67 389.28 274.39 389.29 293.10 389.33 C 295.29 389.16 297.27 390.98 297.37 393.17 C 297.32 409.21 297.28 425.26 297.35 441.30 C 305.30 441.31 313.24 441.32 321.18 441.29 C 321.25 392.83 321.13 344.36 321.24 295.90 C 320.98 290.85 329.53 290.81 329.16 295.96 C 329.29 344.41 329.19 392.87 329.21 441.32 C 338.06 441.28 346.91 441.31 355.76 441.32 C 355.75 371.62 355.74 301.93 355.77 232.23 C 346.93 235.20 338.03 237.97 329.20 240.92 M 37.12 355.15 C 35.35 355.69 34.76 357.61 34.09 359.12 C 29.54 370.93 24.68 382.65 21.40 394.89 C 19.72 401.15 21.30 408.41 26.06 412.96 C 33.24 419.99 46.32 419.55 52.92 411.93 C 57.10 407.13 58.22 400.15 56.42 394.13 C 52.94 381.65 48.18 369.57 43.22 357.62 C 42.44 355.02 39.43 354.51 37.12 355.15 M 98.09 355.17 C 96.36 355.69 95.77 357.58 95.10 359.06 C 90.45 370.90 85.54 382.69 82.36 395.03 C 80.81 401.05 82.22 407.95 86.58 412.48 C 93.63 419.98 107.13 419.74 113.89 411.97 C 118.11 407.17 119.22 400.14 117.41 394.10 C 113.95 381.66 109.19 369.64 104.28 357.72 C 103.50 355.12 100.43 354.39 98.09 355.17 M 159.07 355.18 C 157.33 355.72 156.76 357.63 156.08 359.11 C 151.45 370.89 146.56 382.63 143.39 394.91 C 141.78 400.97 143.19 407.91 147.57 412.49 C 154.62 420.00 168.17 419.77 174.92 411.96 C 179.13 407.14 180.21 400.12 178.41 394.07 C 174.94 381.62 170.16 369.59 165.26 357.66 C 164.41 355.07 161.44 354.35 159.07 355.18 M 240.82 397.30 C 240.26 411.95 240.69 426.64 240.60 441.31 C 247.41 441.31 254.21 441.33 261.01 441.27 C 260.86 426.63 260.95 411.99 260.97 397.34 C 254.25 397.25 247.53 397.38 240.82 397.30 M 268.94 397.32 C 268.91 411.98 268.93 426.65 268.93 441.31 C 275.72 441.29 282.51 441.30 289.31 441.31 C 289.15 426.63 289.61 411.93 289.08 397.26 C 282.36 397.44 275.65 397.26 268.94 397.32 M 208.21 449.34 C 208.18 453.78 208.13 458.22 208.18 462.67 C 302.48 462.72 396.78 462.61 491.09 462.72 C 491.51 458.28 491.24 453.82 491.31 449.37 C 396.94 449.27 302.58 449.33 208.21 449.34 Z" />
<path fill="#010101" opacity="1.00" d=" M 74.28 91.32 C 75.74 90.62 77.42 90.92 78.98 90.82 C 112.98 90.85 146.99 90.81 180.99 90.84 C 183.46 90.47 186.22 92.22 185.97 94.93 C 186.03 103.98 186.02 113.04 185.98 122.10 C 186.30 124.88 183.57 126.87 180.97 126.44 C 146.31 126.45 111.64 126.45 76.98 126.44 C 74.84 126.66 72.34 125.33 72.29 122.97 C 72.04 114.31 72.29 105.64 72.17 96.98 C 72.13 94.95 72.12 92.34 74.28 91.32 M 80.26 98.94 C 80.15 105.37 80.24 111.81 80.18 118.25 C 112.78 118.66 145.39 118.31 178.00 118.43 C 178.00 111.90 178.00 105.38 178.00 98.85 C 145.42 98.91 112.84 98.73 80.26 98.94 Z" />
<path fill="#010101" opacity="1.00" d=" M 75.18 141.31 C 110.47 140.94 145.79 141.26 181.08 141.15 C 183.36 140.84 185.98 142.38 185.93 144.88 C 186.09 153.95 185.97 163.03 185.99 172.11 C 186.44 174.93 183.72 177.26 181.00 176.78 C 146.33 176.76 111.67 176.79 77.00 176.77 C 74.78 177.04 72.27 175.53 72.27 173.12 C 72.07 164.08 72.26 155.02 72.19 145.98 C 71.98 143.97 73.07 141.71 75.18 141.31 M 80.22 149.17 C 80.22 155.69 80.24 162.22 80.22 168.74 C 112.81 168.78 145.40 168.71 177.99 168.78 C 178.01 162.23 178.00 155.69 177.99 149.14 C 145.40 149.21 112.81 149.15 80.22 149.17 Z" />
<path fill="#010101" opacity="1.00" d=" M 74.19 192.05 C 75.65 191.27 77.38 191.60 78.97 191.49 C 112.99 191.53 147.01 191.49 181.04 191.51 C 183.65 191.10 186.38 193.16 185.98 195.94 C 186.01 204.99 186.05 214.04 185.96 223.09 C 186.15 225.73 183.47 227.49 181.04 227.12 C 146.34 227.15 111.65 227.15 76.95 227.12 C 74.54 227.47 72.00 225.65 72.24 223.08 C 72.12 214.37 72.23 205.65 72.19 196.94 C 72.11 195.13 72.37 192.96 74.19 192.05 M 80.23 199.65 C 80.21 206.12 80.16 212.58 80.26 219.05 C 112.83 219.21 145.42 219.08 178.00 219.12 C 178.00 212.59 178.00 206.06 178.00 199.52 C 145.41 199.61 112.82 199.36 80.23 199.65 Z" />
<path fill="#010101" opacity="1.00" d=" M 74.29 242.31 C 77.06 241.33 80.10 241.94 82.98 241.83 C 115.64 241.82 148.30 241.85 180.96 241.81 C 183.44 241.45 186.16 243.22 185.97 245.92 C 186.03 254.95 186.02 263.99 185.98 273.03 C 186.25 275.30 184.37 277.61 182.01 277.43 C 147.00 277.47 111.99 277.45 76.98 277.44 C 74.42 277.83 71.91 275.70 72.22 273.06 C 72.14 264.35 72.24 255.63 72.18 246.92 C 72.07 245.16 72.56 243.14 74.29 242.31 M 80.20 249.94 C 80.24 256.40 80.24 262.87 80.19 269.33 C 112.79 269.56 145.40 269.35 178.00 269.44 C 178.00 262.91 178.00 256.38 178.00 249.85 C 145.40 249.91 112.79 249.73 80.20 249.94 Z" />
<path fill="#010101" opacity="1.00" d=" M 75.13 292.32 C 110.42 291.93 145.74 292.26 181.04 292.15 C 183.31 291.86 186.07 293.30 185.93 295.88 C 186.05 305.26 186.05 314.65 185.93 324.03 C 185.99 326.56 183.33 328.09 181.04 327.77 C 146.33 327.77 111.62 327.78 76.92 327.76 C 74.63 328.07 72.14 326.40 72.25 323.95 C 72.12 314.95 72.22 305.94 72.20 296.94 C 72.00 294.96 73.06 292.75 75.13 292.32 M 80.25 300.21 C 80.18 306.71 80.17 313.21 80.27 319.71 C 112.84 319.82 145.42 319.71 177.99 319.76 C 178.00 313.23 178.02 306.71 177.98 300.18 C 145.40 300.18 112.82 300.13 80.25 300.21 Z" />
<path fill="#010101" opacity="1.00" d=" M 462.41 355.42 C 464.73 354.69 467.41 356.57 467.37 359.04 C 467.57 363.38 467.37 367.73 467.50 372.08 C 467.43 374.08 467.76 376.62 465.82 377.91 C 463.46 379.86 459.40 378.05 459.49 374.93 C 459.34 369.94 459.45 364.95 459.41 359.97 C 459.22 357.98 460.40 355.91 462.41 355.42 Z" />
</g>
</svg>
