<?xml version="1.0" encoding="UTF-8" ?>
<!DOCTYPE svg PUBLIC "-//W3C//DTD SVG 1.1//EN" "http://www.w3.org/Graphics/SVG/1.1/DTD/svg11.dtd">
<svg width="512pt" height="512pt" viewBox="0 0 512 512" version="1.1" xmlns="http://www.w3.org/2000/svg">
<g id="#010101ff">
<path fill="#010101" opacity="1.00" d=" M 106.71 70.73 C 125.08 63.32 145.49 60.77 165.05 64.14 C 195.40 68.98 223.30 86.98 240.31 112.57 C 255.44 112.68 270.38 118.37 281.87 128.19 C 296.39 140.36 305.49 158.99 305.36 178.01 C 305.52 180.29 303.39 182.23 301.14 181.99 C 260.76 182.10 220.37 182.00 179.99 182.04 C 177.78 182.27 175.07 181.54 174.61 179.02 C 173.43 147.07 199.45 117.34 230.97 113.23 C 217.66 94.84 198.19 80.96 176.32 74.74 C 156.09 69.00 134.09 69.43 114.16 76.22 C 91.73 83.91 71.99 99.44 59.75 119.79 C 49.70 135.95 44.49 154.97 44.52 173.98 C 44.49 195.54 44.46 217.11 44.53 238.68 C 49.86 241.04 54.57 245.92 54.71 252.03 C 54.96 258.44 50.09 263.78 44.49 266.22 C 44.49 324.58 44.50 382.94 44.49 441.31 C 51.63 441.43 58.78 441.08 65.91 441.43 C 70.20 441.67 70.37 448.76 66.07 449.18 C 50.06 449.54 34.02 449.24 18.00 449.34 C 16.28 449.20 14.17 449.60 12.89 448.15 C 10.46 446.14 11.97 441.60 15.11 441.42 C 22.22 441.09 29.35 441.43 36.47 441.30 C 36.47 382.95 36.50 324.60 36.46 266.25 C 30.85 263.78 25.95 258.38 26.23 251.94 C 26.49 245.88 31.13 241.00 36.46 238.66 C 36.50 217.45 36.45 196.23 36.48 175.02 C 36.38 154.84 41.76 134.56 52.39 117.37 C 64.82 96.49 84.24 79.92 106.71 70.73 M 200.75 135.69 C 190.03 145.49 183.60 159.58 182.59 174.03 C 220.82 174.06 259.05 174.04 297.28 174.03 C 296.95 170.99 296.52 167.95 295.99 164.94 C 285.73 164.79 275.46 165.16 265.22 164.77 C 261.26 164.27 261.06 157.66 265.08 157.10 C 274.56 156.60 284.08 157.19 293.57 156.89 C 290.81 150.27 287.16 143.96 282.17 138.76 C 271.33 126.81 255.09 120.26 239.02 120.63 C 224.99 120.72 211.05 126.15 200.75 135.69 M 38.34 246.46 C 34.04 247.39 33.18 253.20 35.34 256.45 C 37.01 258.91 40.34 258.71 42.94 258.31 C 46.85 257.23 47.50 252.08 45.93 248.91 C 44.49 246.22 41.01 245.91 38.34 246.46 Z" />
<path fill="#010101" opacity="1.00" d=" M 243.37 157.54 C 246.02 156.49 249.13 156.79 251.91 157.20 C 255.24 158.33 255.18 163.68 251.78 164.67 C 249.29 165.13 246.69 165.13 244.21 164.68 C 241.14 163.78 240.55 159.11 243.37 157.54 Z" />
<path fill="#010101" opacity="1.00" d=" M 110.55 259.48 C 111.72 244.76 125.13 232.09 139.96 232.05 C 183.73 232.02 227.50 232.07 271.27 232.03 C 276.20 232.40 280.73 235.01 284.12 238.53 C 287.69 234.74 292.68 232.22 297.94 232.20 C 339.65 232.16 381.37 232.25 423.08 232.16 C 431.71 231.33 440.85 233.77 447.25 239.80 C 453.65 245.28 457.78 253.44 457.77 261.93 C 457.64 266.43 458.17 271.01 457.44 275.47 C 456.22 278.88 450.61 278.54 449.93 274.94 C 449.09 268.11 450.90 260.96 448.42 254.35 C 446.49 248.59 441.90 243.83 436.19 241.75 C 432.34 240.11 428.10 240.23 424.01 240.22 C 381.98 240.23 339.95 240.18 297.91 240.25 C 292.68 239.89 287.80 244.66 288.02 249.90 C 287.97 279.33 288.01 308.76 288.00 338.20 C 342.11 338.20 396.21 338.20 450.31 338.20 C 450.32 325.44 450.27 312.68 450.32 299.92 C 450.32 286.91 461.99 275.14 474.99 275.00 C 488.24 274.77 500.26 286.76 500.31 299.96 C 500.27 327.99 500.30 356.01 500.30 384.04 C 500.54 397.50 488.39 409.41 475.06 409.61 C 469.39 409.55 463.72 409.35 458.05 409.42 C 461.38 420.04 464.65 430.68 467.96 441.30 C 476.21 441.43 484.49 441.04 492.73 441.48 C 497.03 442.19 496.47 449.26 492.10 449.28 C 480.40 449.32 468.70 449.41 457.01 449.34 C 455.06 449.20 452.54 449.70 451.30 447.77 C 441.89 435.10 432.81 422.17 423.44 409.47 C 330.74 409.43 238.03 409.44 145.33 409.46 C 137.14 420.61 129.12 431.88 120.96 443.04 C 119.35 445.08 118.16 447.60 115.92 449.03 C 111.95 449.63 107.89 449.35 103.89 449.27 C 101.21 449.52 99.00 446.62 99.99 444.11 C 103.42 432.52 107.16 421.03 110.67 409.46 C 103.70 409.06 96.67 410.14 89.74 409.19 C 78.04 407.06 68.22 396.12 68.48 384.05 C 68.48 356.01 68.45 327.97 68.49 299.93 C 68.45 286.63 80.72 274.61 94.03 275.01 C 106.96 275.30 118.46 287.09 118.46 300.03 C 118.46 312.69 118.42 325.35 118.46 338.01 C 172.31 337.99 226.15 338.01 280.00 338.00 C 279.99 308.64 280.02 279.29 279.99 249.93 C 280.30 244.66 275.43 239.73 270.14 240.07 C 226.72 240.00 183.29 240.04 139.87 240.05 C 131.76 240.10 123.67 244.85 120.46 252.44 C 117.12 259.51 119.08 267.49 118.26 274.98 C 117.48 278.95 111.01 278.69 110.57 274.68 C 110.22 269.63 110.39 264.54 110.55 259.48 M 90.29 283.26 C 82.63 284.30 76.58 291.32 76.54 299.02 C 76.43 327.02 76.53 355.02 76.49 383.02 C 76.34 387.49 77.38 392.19 80.38 395.64 C 87.21 403.90 102.17 403.14 107.81 393.89 C 111.24 388.58 110.41 382.00 110.37 376.01 C 110.41 350.34 110.47 324.67 110.39 299.01 C 110.45 288.84 100.03 281.13 90.29 283.26 M 472.26 283.24 C 464.56 284.22 458.44 291.25 458.39 298.98 C 458.21 327.35 458.40 355.73 458.33 384.10 C 458.29 388.02 459.37 392.03 461.83 395.14 C 468.18 403.49 482.69 403.45 488.92 394.97 C 491.48 391.56 492.37 387.20 492.30 383.01 C 492.21 355.02 492.35 327.03 492.23 299.04 C 492.31 288.92 481.98 281.16 472.26 283.24 M 118.44 346.01 C 118.42 353.64 118.50 361.28 118.43 368.92 C 172.31 368.95 226.19 368.97 280.07 368.90 C 280.07 361.27 280.08 353.64 280.07 346.00 C 226.19 346.00 172.31 345.99 118.44 346.01 M 288.10 346.19 C 287.95 353.79 288.12 361.38 288.11 368.98 C 342.17 368.90 396.22 368.93 450.28 368.97 C 450.35 361.38 450.29 353.79 450.29 346.21 C 396.23 346.21 342.16 346.25 288.10 346.19 M 118.44 376.94 C 118.44 381.22 118.76 385.56 117.82 389.78 C 116.80 394.23 114.25 398.15 111.26 401.54 C 126.16 401.25 141.08 401.45 155.98 401.42 C 216.99 401.43 277.99 401.44 338.99 401.42 C 378.51 401.55 418.05 401.22 457.56 401.53 C 455.07 398.80 452.94 395.71 451.66 392.22 C 449.75 387.35 450.41 382.03 450.31 376.93 C 339.69 376.93 229.06 376.92 118.44 376.94 M 119.09 409.45 C 115.77 420.11 112.42 430.77 109.20 441.47 C 110.84 441.26 112.81 441.27 113.62 439.53 C 120.92 429.50 128.10 419.38 135.49 409.41 C 130.02 409.52 124.56 409.41 119.09 409.45 M 433.27 409.40 C 440.70 419.43 447.93 429.61 455.28 439.70 C 456.06 441.32 457.96 441.23 459.50 441.30 C 456.33 430.67 452.95 420.11 449.70 409.50 C 444.22 409.38 438.75 409.48 433.27 409.40 Z" />
<path fill="#010101" opacity="1.00" d=" M 350.43 253.63 C 353.44 252.62 356.82 252.94 359.93 253.35 C 363.30 254.42 363.35 259.68 359.98 260.80 C 357.04 261.19 354.02 261.29 351.09 260.84 C 347.98 259.87 347.55 255.14 350.43 253.63 Z" />
<path fill="#010101" opacity="1.00" d=" M 372.30 253.34 C 381.50 252.69 390.78 253.29 400.01 253.04 C 402.32 253.15 405.57 252.56 406.78 255.15 C 408.32 257.72 406.09 261.38 403.07 261.02 C 393.04 261.04 383.01 261.18 372.99 260.95 C 369.09 260.63 368.57 254.43 372.30 253.34 Z" />
<path fill="#010101" opacity="1.00" d=" M 133.39 441.56 C 136.55 441.02 139.78 441.36 142.98 441.30 C 161.36 441.30 179.74 441.32 198.13 441.29 C 199.87 441.20 201.87 441.59 202.76 443.29 C 204.42 445.86 202.16 449.62 199.09 449.27 C 177.70 449.36 156.29 449.35 134.90 449.28 C 130.41 449.84 129.12 442.73 133.39 441.56 Z" />
<path fill="#010101" opacity="1.00" d=" M 221.27 441.45 C 226.84 441.07 232.44 441.45 238.02 441.26 C 240.38 441.38 243.51 440.77 244.98 443.18 C 246.56 445.47 244.89 449.17 242.04 449.22 C 235.05 449.35 228.04 449.53 221.07 449.14 C 217.09 448.44 217.25 441.89 221.27 441.45 Z" />
</g>
</svg>
