<?xml version="1.0" encoding="UTF-8" ?>
<!DOCTYPE svg PUBLIC "-//W3C//DTD SVG 1.1//EN" "http://www.w3.org/Graphics/SVG/1.1/DTD/svg11.dtd">
<svg width="512pt" height="512pt" viewBox="0 0 512 512" version="1.1" xmlns="http://www.w3.org/2000/svg">
<g id="#010101ff">
<path fill="#010101" opacity="1.00" d=" M 404.68 26.96 C 404.40 24.56 406.55 22.39 408.96 22.67 C 424.75 22.73 440.48 27.64 453.58 36.45 C 469.37 46.94 481.42 62.98 486.93 81.13 C 490.19 91.72 490.97 102.90 490.74 113.92 C 490.75 182.95 490.73 251.99 490.75 321.02 C 490.91 328.41 489.87 335.74 488.81 343.04 C 484.86 359.31 476.08 374.46 463.49 385.57 C 448.98 398.64 429.56 406.09 410.02 405.93 C 281.99 405.91 153.96 405.97 25.94 405.90 C 23.15 406.24 21.09 403.54 21.50 400.92 C 21.51 301.28 21.52 201.65 21.49 102.01 C 21.49 100.29 21.53 98.06 23.28 97.13 C 25.89 95.38 29.14 96.68 32.04 96.49 C 156.23 97.47 280.42 98.48 404.62 99.47 C 404.68 75.30 404.55 51.13 404.68 26.96 M 412.65 30.80 C 412.67 107.58 412.65 184.34 412.65 261.12 C 443.32 262.85 470.66 284.56 482.24 312.56 C 482.22 243.71 482.21 174.86 482.25 106.01 C 483.32 81.90 471.23 57.86 451.50 44.04 C 451.56 69.35 451.50 94.66 451.53 119.97 C 451.49 122.43 451.72 124.92 451.29 127.36 C 450.41 129.81 447.03 130.71 445.04 129.04 C 443.13 127.62 443.59 125.03 443.48 122.96 C 443.64 95.05 443.29 67.13 443.66 39.23 C 434.06 34.27 423.45 31.33 412.65 30.80 M 29.48 104.71 C 29.59 202.45 29.48 300.18 29.54 397.91 C 155.34 397.98 281.14 397.91 406.95 397.95 C 416.58 398.05 426.32 396.98 435.42 393.67 C 451.95 387.87 466.07 375.60 474.18 360.08 C 477.51 353.24 481.03 345.89 480.35 338.07 C 478.98 319.07 470.12 300.75 456.08 287.87 C 443.91 276.56 427.66 269.66 411.02 269.12 C 409.13 268.89 406.78 269.33 405.45 267.63 C 403.87 265.39 404.77 262.51 404.60 259.99 C 404.68 222.78 404.59 185.57 404.65 148.37 C 393.77 148.41 382.90 148.32 372.02 148.38 C 370.17 148.15 368.66 149.26 367.47 150.53 C 355.49 162.55 343.52 174.59 331.49 186.56 C 329.56 188.94 325.30 188.02 324.61 185.00 C 323.95 183.20 325.17 181.52 326.39 180.33 C 338.88 167.82 351.39 155.33 363.84 142.78 C 364.99 141.72 366.17 140.30 367.91 140.41 C 380.14 140.26 392.39 140.39 404.62 140.36 C 404.65 129.40 404.60 118.44 404.64 107.48 C 281.45 106.50 158.25 105.52 35.06 104.51 C 33.20 104.51 31.34 104.59 29.48 104.71 Z" />
<path fill="#010101" opacity="1.00" d=" M 57.56 144.99 C 57.23 142.44 59.35 139.98 61.98 140.37 C 143.69 140.34 225.39 140.34 307.10 140.35 C 308.78 140.28 310.73 140.68 311.58 142.33 C 313.24 144.84 311.07 148.70 308.00 148.32 C 284.65 148.43 261.29 148.35 237.93 148.36 C 237.81 154.59 238.14 160.84 237.81 167.06 C 237.61 171.03 231.37 171.70 230.17 167.96 C 229.53 161.45 230.16 154.89 229.94 148.36 C 175.23 148.33 120.53 148.47 65.83 148.29 C 65.63 150.53 65.53 152.79 65.56 155.05 C 65.63 187.30 65.49 219.56 65.62 251.82 C 72.75 251.73 79.88 251.83 87.01 251.77 C 88.89 251.58 90.96 252.45 91.62 254.33 C 92.70 256.78 90.66 259.90 87.95 259.74 C 80.49 259.94 73.03 259.72 65.57 259.80 C 65.57 294.26 65.58 328.72 65.57 363.17 C 85.40 363.33 105.24 363.14 125.07 363.26 C 128.34 362.81 130.80 367.09 128.63 369.61 C 127.39 371.55 124.97 371.20 122.99 371.26 C 102.63 371.19 82.26 371.33 61.90 371.20 C 58.97 371.55 57.13 368.64 57.54 365.99 C 57.57 292.32 57.53 218.66 57.56 144.99 Z" />
<path fill="#010101" opacity="1.00" d=" M 445.43 158.65 C 447.94 156.91 451.73 159.10 451.48 162.15 C 451.59 171.37 451.53 180.60 451.49 189.82 C 451.65 192.94 447.55 194.95 445.15 193.00 C 443.50 191.88 443.49 189.78 443.50 188.02 C 443.51 179.67 443.48 171.33 443.52 162.99 C 443.43 161.35 443.89 159.50 445.43 158.65 Z" />
<path fill="#010101" opacity="1.00" d=" M 229.99 192.91 C 229.63 189.96 233.23 187.77 235.74 189.26 C 237.54 190.05 238.02 192.13 237.93 193.92 C 237.92 223.28 237.94 252.64 237.93 282.00 C 276.29 282.00 314.64 282.00 353.00 281.99 C 354.57 282.01 356.49 282.07 357.44 283.57 C 358.97 285.55 358.13 288.77 355.78 289.69 C 353.58 290.20 351.30 289.98 349.07 290.02 C 332.90 289.97 316.73 290.01 300.56 290.00 C 300.54 297.68 300.65 305.36 300.52 313.04 C 300.85 316.15 296.94 318.41 294.40 316.58 C 292.39 315.46 292.57 312.96 292.52 310.99 C 292.54 304.00 292.58 297.01 292.57 290.01 C 274.35 289.99 256.14 290.00 237.93 290.00 C 237.93 314.41 237.92 338.81 237.93 363.22 C 256.14 363.24 274.34 363.21 292.55 363.23 C 292.66 355.48 292.39 347.72 292.62 339.97 C 292.35 336.68 296.77 334.69 299.13 336.92 C 300.76 338.07 300.56 340.21 300.60 341.97 C 300.53 349.05 300.59 356.14 300.58 363.23 C 337.67 363.17 374.76 363.35 411.84 363.14 C 411.80 338.76 411.85 314.39 411.82 290.02 C 401.86 289.93 391.89 290.09 381.93 289.96 C 380.08 290.09 378.23 288.84 377.84 287.00 C 377.07 284.53 379.26 281.73 381.88 282.04 C 393.27 281.96 404.67 281.99 416.06 282.03 C 418.24 281.70 420.13 283.90 419.92 286.00 C 419.73 313.02 419.96 340.06 419.80 367.09 C 420.03 369.69 417.50 371.58 415.04 371.23 C 338.68 371.27 262.32 371.25 185.97 371.25 C 183.14 371.69 180.43 368.89 181.39 366.09 C 181.91 364.13 183.97 363.05 185.90 363.25 C 200.57 363.19 215.25 363.25 229.92 363.23 C 229.95 328.75 229.96 294.28 229.91 259.80 C 191.60 259.81 153.29 259.79 114.98 259.81 C 113.18 259.88 111.03 259.58 110.14 257.77 C 108.47 255.12 110.89 251.40 113.99 251.83 C 152.65 251.67 191.33 251.92 230.00 251.71 C 229.90 232.11 229.90 212.51 229.99 192.91 Z" />
<path fill="#010101" opacity="1.00" d=" M 68.44 440.52 C 70.59 440.04 72.80 439.99 75.00 439.98 C 189.38 440.08 303.78 439.88 418.16 440.08 C 432.02 446.65 445.83 453.61 459.73 460.22 C 461.65 461.07 463.91 462.52 463.57 464.98 C 463.52 467.09 461.54 468.14 459.90 468.95 C 445.88 475.70 431.93 482.63 417.90 489.33 C 303.29 489.25 188.65 489.31 74.04 489.31 C 58.92 489.93 45.14 474.16 49.22 459.24 C 51.25 449.88 59.07 442.37 68.44 440.52 M 62.76 451.70 C 54.38 457.89 54.51 472.03 62.99 478.06 C 69.27 482.80 77.52 480.89 84.80 481.27 C 84.78 470.18 84.76 459.10 84.81 448.01 C 77.43 448.39 68.84 446.30 62.76 451.70 M 92.81 448.00 C 92.79 459.09 92.81 470.18 92.81 481.27 C 97.80 481.25 102.80 481.28 107.80 481.28 C 107.73 470.19 107.77 459.10 107.79 448.01 C 102.80 447.99 97.81 448.00 92.81 448.00 M 115.80 448.00 C 115.80 452.23 115.80 456.46 115.81 460.70 C 214.89 460.73 313.98 460.69 413.07 460.72 C 413.08 456.48 413.08 452.24 413.07 448.00 C 313.98 448.00 214.89 448.00 115.80 448.00 M 421.09 450.35 C 420.94 459.86 421.21 469.37 421.01 478.88 C 430.81 474.20 440.61 469.49 450.31 464.60 C 440.58 459.83 430.82 455.13 421.09 450.35 M 115.81 468.73 C 115.80 472.90 115.80 477.08 115.81 481.26 C 214.89 481.30 313.98 481.26 413.07 481.27 C 413.08 477.09 413.08 472.92 413.07 468.74 C 313.98 468.70 214.89 468.74 115.81 468.73 Z" />
</g>
</svg>
